HIERARCHY
ROOT Hips
{
	OFFSET -14.64140 90.27770 -84.91600
	CHANNELS 6 Xposition Yposition Zposition Zrotation Xrotation Yrotation
	JOINT Spine
	{
		OFFSET 0.00000 13.20850 -1.60436
		CHANNELS 3 Zrotation Xrotation Yrotation
		JOINT Spine1
		{
			OFFSET 0.00000 8.61716 0.00000
			CHANNELS 3 Zrotation Xrotation Yrotation
			JOINT Spine2
			{
				OFFSET 0.00000 8.61717 0.00000
				CHANNELS 3 Zrotation Xrotation Yrotation
				JOINT Spine3
				{
					OFFSET 0.00000 8.61717 0.00000
					CHANNELS 3 Zrotation Xrotation Yrotation
					JOINT Neck
					{
						OFFSET 0.00000 11.07920 1.10792
						CHANNELS 3 Zrotation Xrotation Yrotation
						JOINT Neck1
						{
							OFFSET 0.00000 7.08032 0.00000
							CHANNELS 3 Zrotation Xrotation Yrotation
							JOINT Head
							{
								OFFSET 0.00000 7.08031 0.00000
								CHANNELS 3 Zrotation Xrotation Yrotation
								End site
								{
									OFFSET 0.00000 0.00000 0.00000
								}
							}
						}
					}
					JOINT RightShoulder
					{
						OFFSET -0.01000 7.91373 5.19711
						CHANNELS 3 Zrotation Xrotation Yrotation
						JOINT RightArm
						{
							OFFSET -18.41580 0.00000 0.00000
							CHANNELS 3 Zrotation Xrotation Yrotation
							JOINT RightForeArm
							{
								OFFSET -29.11090 0.00000 0.00000
								CHANNELS 3 Zrotation Xrotation Yrotation
								JOINT RightHand
								{
									OFFSET -24.65040 0.00000 0.00000
									CHANNELS 3 Zrotation Xrotation Yrotation
									JOINT RightHandThumb1
									{
										OFFSET -5.35114 -0.85590 3.97906
										CHANNELS 3 Zrotation Xrotation Yrotation
										JOINT RightHandThumb2
										{
											OFFSET -4.52789 0.00000 0.00000
											CHANNELS 3 Zrotation Xrotation Yrotation
											JOINT RightHandThumb3
											{
												OFFSET -2.46976 0.00000 0.00000
												CHANNELS 3 Zrotation Xrotation Yrotation
												End site
												{
													OFFSET 0.00000 0.00000 0.00000
												}
											}
										}
									}
									JOINT RightHandIndex1
									{
										OFFSET -14.26970 0.00000 2.88139
										CHANNELS 3 Zrotation Xrotation Yrotation
										JOINT RightHandIndex2
										{
											OFFSET -5.48836 0.00000 0.00000
											CHANNELS 3 Zrotation Xrotation Yrotation
											JOINT RightHandIndex3
											{
												OFFSET -3.01859 0.00000 0.00000
												CHANNELS 3 Zrotation Xrotation Yrotation
												End site
												{
													OFFSET 0.00000 0.00000 0.00000
												}
											}
										}
									}
									JOINT RightHandMiddle1
									{
										OFFSET -14.26970 0.00000 -0.09147
										CHANNELS 3 Zrotation Xrotation Yrotation
										JOINT RightHandMiddle2
										{
											OFFSET -6.17441 0.00000 0.00000
											CHANNELS 3 Zrotation Xrotation Yrotation
											JOINT RightHandMiddle3
											{
												OFFSET -3.56743 0.00000 0.00000
												CHANNELS 3 Zrotation Xrotation Yrotation
												End site
												{
													OFFSET 0.00000 0.00000 0.00000
												}
											}
										}
									}
									JOINT RightHandRing1
									{
										OFFSET -12.69180 0.00000 -3.06433
										CHANNELS 3 Zrotation Xrotation Yrotation
										JOINT RightHandRing2
										{
											OFFSET -5.62556 0.00000 0.00000
											CHANNELS 3 Zrotation Xrotation Yrotation
											JOINT RightHandRing3
											{
												OFFSET -3.56744 0.00000 0.00000
												CHANNELS 3 Zrotation Xrotation Yrotation
												End site
												{
													OFFSET 0.00000 0.00000 0.00000
												}
											}
										}
									}
									JOINT RightHandPinky1
									{
										OFFSET -11.11390 0.00000 -6.03719
										CHANNELS 3 Zrotation Xrotation Yrotation
										JOINT RightHandPinky2
										{
											OFFSET -4.52789 0.00000 0.00000
											CHANNELS 3 Zrotation Xrotation Yrotation
											JOINT RightHandPinky3
											{
												OFFSET -2.46976 0.00000 0.00000
												CHANNELS 3 Zrotation Xrotation Yrotation
												End site
												{
													OFFSET 0.00000 0.00000 0.00000
												}
											}
										}
									}
								}
							}
						}
					}
					JOINT LeftShoulder
					{
						OFFSET 0.01000 7.91373 5.19711
						CHANNELS 3 Zrotation Xrotation Yrotation
						JOINT LeftArm
						{
							OFFSET 18.41580 0.00000 0.00000
							CHANNELS 3 Zrotation Xrotation Yrotation
							JOINT LeftForeArm
							{
								OFFSET 29.11090 0.00000 0.00000
								CHANNELS 3 Zrotation Xrotation Yrotation
								JOINT LeftHand
								{
									OFFSET 24.65040 0.00000 0.00000
									CHANNELS 3 Zrotation Xrotation Yrotation
									JOINT LeftHandThumb1
									{
										OFFSET 5.35114 -0.85590 3.97906
										CHANNELS 3 Zrotation Xrotation Yrotation
										JOINT LeftHandThumb2
										{
											OFFSET 4.52789 0.00000 0.00000
											CHANNELS 3 Zrotation Xrotation Yrotation
											JOINT LeftHandThumb3
											{
												OFFSET 2.46977 0.00000 0.00000
												CHANNELS 3 Zrotation Xrotation Yrotation
												End site
												{
													OFFSET 0.00000 0.00000 0.00000
												}
											}
										}
									}
									JOINT LeftHandIndex1
									{
										OFFSET 14.26970 0.00000 2.88139
										CHANNELS 3 Zrotation Xrotation Yrotation
										JOINT LeftHandIndex2
										{
											OFFSET 5.48836 0.00000 0.00000
											CHANNELS 3 Zrotation Xrotation Yrotation
											JOINT LeftHandIndex3
											{
												OFFSET 3.01859 0.00000 0.00000
												CHANNELS 3 Zrotation Xrotation Yrotation
												End site
												{
													OFFSET 0.00000 0.00000 0.00000
												}
											}
										}
									}
									JOINT LeftHandMiddle1
									{
										OFFSET 14.26970 0.00000 -0.09147
										CHANNELS 3 Zrotation Xrotation Yrotation
										JOINT LeftHandMiddle2
										{
											OFFSET 6.17440 0.00000 0.00000
											CHANNELS 3 Zrotation Xrotation Yrotation
											JOINT LeftHandMiddle3
											{
												OFFSET 3.56744 0.00000 0.00000
												CHANNELS 3 Zrotation Xrotation Yrotation
												End site
												{
													OFFSET 0.00000 0.00000 0.00000
												}
											}
										}
									}
									JOINT LeftHandRing1
									{
										OFFSET 12.69180 0.00000 -3.06433
										CHANNELS 3 Zrotation Xrotation Yrotation
										JOINT LeftHandRing2
										{
											OFFSET 5.62556 0.00000 0.00000
											CHANNELS 3 Zrotation Xrotation Yrotation
											JOINT LeftHandRing3
											{
												OFFSET 3.56744 0.00000 0.00000
												CHANNELS 3 Zrotation Xrotation Yrotation
												End site
												{
													OFFSET 0.00000 0.00000 0.00000
												}
											}
										}
									}
									JOINT LeftHandPinky1
									{
										OFFSET 11.11390 0.00000 -6.03719
										CHANNELS 3 Zrotation Xrotation Yrotation
										JOINT LeftHandPinky2
										{
											OFFSET 4.52789 0.00000 0.00000
											CHANNELS 3 Zrotation Xrotation Yrotation
											JOINT LeftHandPinky3
											{
												OFFSET 2.46976 0.00000 0.00000
												CHANNELS 3 Zrotation Xrotation Yrotation
												End site
												{
													OFFSET 0.00000 0.00000 0.00000
												}
											}
										}
									}
								}
							}
						}
					}
					JOINT pCube4
					{
						OFFSET 0.00000 10.91090 1.10792
						CHANNELS 3 Zrotation Xrotation Yrotation
						End site
						{
							OFFSET 0.00000 0.00000 0.00000
						}
					}
				}
			}
		}
	}
	JOINT RightUpLeg
	{
		OFFSET -9.98441 0.00000 0.00000
		CHANNELS 3 Zrotation Xrotation Yrotation
		JOINT RightLeg
		{
			OFFSET 0.00000 -42.11790 0.00000
			CHANNELS 3 Zrotation Xrotation Yrotation
			JOINT RightFoot
			{
				OFFSET 0.00000 -45.00020 -0.00001
				CHANNELS 3 Zrotation Xrotation Yrotation
				JOINT RightForeFoot
				{
					OFFSET 0.00000 -3.74820 0.00000
					CHANNELS 3 Zrotation Xrotation Yrotation
					JOINT RightToeBase
					{
						OFFSET 0.00000 0.06325 14.43120
						CHANNELS 3 Zrotation Xrotation Yrotation
						End site
						{
							OFFSET 0.00000 0.00000 0.00000
						}
					}
				}
			}
		}
	}
	JOINT LeftUpLeg
	{
		OFFSET 9.98441 0.00000 0.00000
		CHANNELS 3 Zrotation Xrotation Yrotation
		JOINT LeftLeg
		{
			OFFSET 0.00000 -42.11800 0.00000
			CHANNELS 3 Zrotation Xrotation Yrotation
			JOINT LeftFoot
			{
				OFFSET 0.00000 -45.00070 0.00000
				CHANNELS 3 Zrotation Xrotation Yrotation
				JOINT LeftForeFoot
				{
					OFFSET 0.00000 -3.74824 0.00000
					CHANNELS 3 Zrotation Xrotation Yrotation
					JOINT LeftToeBase
					{
						OFFSET 0.00000 0.06325 14.43110
						CHANNELS 3 Zrotation Xrotation Yrotation
						End site
						{
							OFFSET 0.00000 0.00000 0.00000
						}
					}
				}
			}
		}
	}
}
MOTION
Frames: 4
Frame Time: 0.050000
0.030249803361228268 -0.00629560745435257 0.00212860281310523 -0.036318498007446694 -0.03981389463344072 0.018975810213450597 5.247671708404575 3.3770362474178914 -2.296933714406275 -0.863340786126263 3.429198086634015 0.3732243936317871 -0.5428766062643436 -0.8653689565783681 1.080071581075461 -0.7434926718237591 -0.5652047905041213 -0.19962831282857044 -0.3049095774195751 11.178537521028113 -0.5671454042236045 0.004194189715783359 -0.9989542431521942 -1.282026537471001 0.22091005726012616 -17.70192444389855 -0.13383469791387337 -10.985886423515598 3.9407778219003076 -17.371004083230208 81.85131164397494 -4.526376070597887 13.001618128060729 31.244913241382182 1.7506405216116117 95.19026777430308 9.296077605025996 -0.42781190919328643 -3.921859444306952 4.57250495922253 -0.1639141434855188 -1.5457636034189046 0.04336560728787716 -0.035183546582084294 -56.200738716813916 -0.006918008706915338 0.028222449657257637 -56.260316174203666 -38.76380933217734 -0.04487903764473559 -0.008645944568559194 0.04886134937178328 -0.0037503649959888304 0.04721652735428712 0.009539635495189873 0.00362180452957232 0.017979347334673792 -36.65340641671703 -0.028989703912954603 0.03563996561055819 -0.016672418254223234 0.025959856728257916 -0.012081508053032252 0.03311999053262581 0.04002887385616528 -0.02754572551891161 -19.751562713639508 -0.04182939629181928 -0.006400675811971301 -0.02496865649710777 -0.03081034303105982 0.0472984388388025 -0.0385295412291503 -0.007045988353992057 0.025985665119065263 24.043433861366665 0.02066553673389661 -0.045384647177331615 28.887393102876718 0.028558013491327378 -0.0037904384266613245 28.84190113551954 -0.016024372491979584 0.0168356390380383 10.058525711913061 2.4104019544850726 14.198101799819321 -77.14091850210525 18.421540100656987 -13.056460470096457 -9.31118511296348 12.249028449974395 -56.33900269994843 -18.969289536240787 -2.3551671397023175 3.166323776959959 -0.4815345740256303 0.020213733042517973 -8.078711195514316 -0.020398374317525773 -0.020638184140025332 44.57558848750817 -0.02872823107848604 0.017012378139968382 44.57766036717701 12.46148925424948 -0.020294440212384704 0.038647418012373244 0.02530716746317374 0.015473979911529821 0.010722885087887176 0.013783309950743077 0.027910410147481933 -0.036420550484496675 11.07093835126194 -0.016101792550129636 -0.025408420456256502 0.041439450940418246 -0.022883661658477022 -0.011774651082717288 -0.021866236896693068 0.00874037601784821 0.012436903665004348 4.775545217252131 -0.03981620593242033 0.01846688147093192 0.026923687653473142 0.016797097251481753 -0.031061248703729265 0.00015354845316327287 -0.024273469325729206 0.010122143573202364 -5.638559558929614 0.04511422222197906 -0.04871307896275963 -6.735720504851944 0.0241790894713157 0.0316136457046828 -6.74107817937045 0.009733808504843039 -0.03436984699393563 -0.034286975663253096 -0.02047824259135569 -0.039477029362780205 8.072171474247787 3.5424811382436685 -19.226205567826785 -0.01909887979894929 10.387064932336278 0.0001901604026471361 -5.646574540761195 -15.654853410598887 3.1677413574003257 0.013950344803358945 -0.003657580722828641 0.040254821118270716 -0.04558994186619843 4.677149468504304 -0.021719734217991633 12.46005061000287 -8.25982501988681 6.9213354730465495 0.00375755169602497 46.39402415561778 0.032606845081831155 -4.349202442336561 -14.740145136144683 -3.8845359822937384 -0.03225441614904361 0.02851994412168193 0.02115859270453035 0.012911019253917954 -10.765463652116257 -0.003958933197905556 
0.029266708417346844 -0.0435365118205083 -0.00022865266357070943 0.03820936224943486 -0.004377916017378003 0.004412774656540964 5.236382794788453 3.27140529611993 -2.277999663339794 -0.8522761921837476 3.4775824790171987 0.4112001943666304 -0.6169759071809722 -0.8774303617411612 1.2394092643747157 -0.7802546440051664 -0.5131518421464508 -0.23053733202051668 -0.19690001722060463 11.170358460791885 -0.780622902894356 0.05267820936922907 -1.098206937587141 -2.0565972876840215 0.4112598243667314 -17.823776191603805 -0.13356131575171473 -10.886609452657833 3.9056618935464815 -17.437799171635685 81.2547306861674 -4.009904891906807 13.211988972110172 30.69109272989785 2.2913302023780457 94.93110812584396 9.630969685369266 -0.48865062388663066 -3.9828988113566086 4.5114804617373645 -0.14157522219185023 -1.5634570657962543 0.019071467108287263 -0.008557480557350094 -56.18857468992366 0.007329151723109549 0.0028110974077019636 -56.20414472514268 -38.76227257704855 -0.003819866761290736 -0.006978730313994021 -0.04975510233412725 0.018045755744444777 -0.04752953926253194 0.013566354429220717 0.00790919706072594 0.005756869224435954 -36.70892629664933 -0.027655034828147962 0.014916158599045763 0.02588020092457539 0.004548813231870098 -0.0040662583799458705 -0.007741370788481875 -0.00944606036150005 0.04795134958214312 -19.75667433947252 -0.04329576714928199 0.008254134325536922 -0.04361291461254577 0.03188229527777478 -0.049809157315382935 -0.03233931284075317 0.021078060894455748 -0.04507749164594998 24.01617890847397 0.0025535734160228975 -0.046690346475147186 28.825918513276253 0.03133399412810435 -0.02188907258918493 28.895602152426772 -0.02318065940944576 0.0008641443648224068 9.707556768623851 2.383277781107141 14.371956633899677 -77.31587747266151 18.39006196960747 -11.641892460713137 -7.163020086168493 11.853171551260921 -53.13242801325339 -19.25311722465981 -1.9645688940601973 2.981304817177735 -0.46454408582667733 0.05065090455416427 -8.141120014248106 0.002366412037411642 0.04072213722016601 44.52651824592418 -0.001595176987945222 0.019132595988284058 44.55047886947178 12.502802539132153 -0.009691097820024227 0.033784749398968486 0.007356029194874016 -0.012858760994186645 0.010875578285749048 -0.018542412677337222 0.039372225483628676 0.01060367898962887 11.132636331009806 -0.0022510476762702073 -0.015467252468137727 0.034653371826028546 -0.044898535145949235 0.02562995514366498 -0.023703261960115143 0.008641441940902031 0.03675085512336369 4.784112339263399 -0.028799450728484506 0.019958912487318695 0.020114629709606712 -0.02459800366696048 -0.011703761543665961 0.014937433011704932 0.042321544640386545 -0.008903576694559868 -5.645280877685448 -0.01879932972507748 -0.045792674477780626 -6.75319387422712 0.0385853842530663 0.017008916016204738 -6.7587028893624606 -0.029929389742001638 0.011443616229252293 -0.03077551957270144 -0.01336330289945831 -0.007065322312823134 8.068532746591659 3.492164002848689 -19.205265824395305 0.011843107578733693 10.417721076112024 0.031739523522800864 -5.6256623910123285 -15.639904313862528 3.2016568472595637 0.011540592249941604 -0.048550800724135264 -0.02140336003673002 0.016455664743641414 4.743025786290808 -0.03854590047042213 12.414164792802575 -8.272858244954955 6.843421370778772 0.03965162209646889 46.33494240017388 -0.0257721026581747 -4.3573766996274035 -14.74692800883238 -3.8552093098365265 0.026112799092624518 0.047114026159221584 0.020049170339951794 -0.010548359644708597 -10.739048619961187 0.028834598715243936 
-0.0030590932043998934 0.02301323787979648 -0.01171990719695427 0.03918755523984067 -0.006905061586717962 0.019883613577976758 5.267498518380498 3.277800928166181 -2.291339779657994 -0.8022836102776136 3.4858256357569983 0.4178436991030986 -0.5567045653256933 -0.8152730017293051 1.340689445078735 -0.7727993818427664 -0.5646403374280121 -0.15951429664049194 -0.03764560869747607 11.169382159394987 -1.0380981464124623 -0.011783050324071093 -1.1366999815163101 -2.7535491009350235 0.4865215180963394 -17.979327403779973 -0.22481815044974165 -10.832278382013843 3.8769217468098627 -17.4845701712386 80.83724260328786 -3.561036334516002 13.017885770197164 30.223688995408324 2.767573364865827 94.69147151141473 10.061157491162167 -0.45758755432257625 -4.178698640031068 4.525436437514521 -0.1199821762545355 -1.6230161060061095 0.0452211288599974 -0.0036967413401498943 -56.230266008242296 0.003092002913929042 0.022530457874123583 -56.22398343720483 -38.80096199874557 0.0035022891573508004 0.03773769697353919 -0.03822550236436921 0.022576424696953246 -0.023077818299087283 0.00620007053942415 0.006407323738652363 -0.001565770151780932 -36.6645832113958 -0.04783732113121937 0.009665451496642496 -0.02199379517418985 -0.017232425816129812 0.0176100980023092 -0.04265269338285398 0.013634489815186978 -0.030662808209282258 -19.800593067014805 -0.00574983297466823 0.0435098296974007 -0.013968148520057325 -0.045460305324137994 -0.0063521735220857896 -0.0008242442186229366 0.00549910870221835 0.04866230482885113 24.073354526857056 0.0104077239285704 -0.015692819850797117 28.89539385312916 0.027739951084840776 0.04991120015882621 28.879587005587926 -0.03747763719901304 -0.035277102678741484 9.429732084483945 2.305910413750959 14.39209161118641 -77.46185813666717 18.44011170496244 -10.504457066490906 -5.797290179493271 11.549162390864339 -51.07077633864699 -19.446547729391273 -1.688504737105962 2.894571444851198 -0.4343542660539215 0.07950113425194164 -8.158410749811942 0.009354106838970071 0.0028780171475884793 44.60596662635507 0.0051724074531841234 0.04668964079185695 44.580779024624114 12.494445370459239 0.023906301731199106 -0.023182211735385913 0.04222140887833867 0.004283828441931652 0.022017390114686362 -0.01066224225937237 -0.03698721228491799 0.022344339757056804 11.139533608457942 -0.0339152434316143 0.013673952192521361 0.019703184917741957 0.013121418005747714 0.028093242676486174 -0.006964142299028625 0.0025993005658386165 0.040439450065724754 4.798886086078957 0.034891054495644495 -0.020629308140274905 0.006753365232562516 -0.007785517429257619 0.04688326964794871 -0.014398138546067453 -0.004247230552535465 -0.03451072656398192 -5.555284233634239 0.015508896127413352 0.03143518420920529 -6.701599836598179 0.04556443036741066 0.0005084226512896474 -6.746979988986061 -0.013786322672619842 -0.01299269983666913 0.006275805909019134 -0.02541917709402804 0.03277571030431583 8.06140753077723 3.5079649331060594 -19.193788851129607 -0.0050119018088825625 10.381619808193596 0.05291541199717835 -5.5996758957448085 -15.630888237101434 3.1849938388349863 -0.030580159147558395 -0.016338190941313106 -0.03734193848202058 0.028746940940909602 4.665597103742381 0.004420642979181022 12.426825146602676 -8.21886043320689 6.898902139057635 0.01596554688720288 46.386182869075085 -0.02760382986872323 -4.287538816587447 -14.754402328259859 -3.8625383074188515 0.047939921738500486 -0.038887525681331664 -0.03036877300648372 0.043841182491436176 -10.736128087092757 -0.020931577198479167 
0.02791367552772139 -0.005813025046353205 -0.02180785476155599 0.016436252186324146 0.008133256521549483 -0.019120005447393305 5.290989185086694 3.1512320357623076 -2.2939145479544814 -0.7505896104814971 3.4838789268909705 0.4070822310076775 -0.6187645708639519 -0.8832183772992441 1.3803398154459947 -0.7280940474108504 -0.5574620752656126 -0.16600878409203065 0.08250406580821146 11.10467350351016 -1.3260211524064658 0.036721419014593054 -1.2313773223476203 -3.319272027646252 0.5700001190630889 -18.012823005812805 -0.29778687642075424 -10.76485490581194 3.8288152165242013 -17.599644249076974 80.56137467259119 -3.233475487584785 12.581208857054191 29.30776239967659 3.326930250883744 95.1351932814516 10.547753603773806 -0.5327914058119093 -4.32972885543525 4.573258544643856 -0.08383111449424316 -1.544477262028808 -0.01026292952551508 -0.006964470704701436 -56.219798216782365 0.01140587720754378 -0.015027122523046665 -56.196606268517975 -38.75211668910471 0.017480809586076736 -0.02506585408706579 -0.023753617456824354 -0.015973459704354136 -0.0036922184080179173 -0.0322610628188767 0.03406307361496995 -0.04889869953038039 -36.72386471338731 0.042513300444117885 -0.030499569762026012 0.008837250871682552 0.036411200715606995 -0.013635585564400022 -0.009056821895012189 -0.0009297196597981202 -0.0048268050396514505 -19.794219469502874 0.0248800348132599 0.012486942108787931 0.014692083083687201 -0.010152792556472036 0.02693931440110749 -0.0144734949414267 -0.0455257599165213 0.02623907648506973 24.089246109320033 0.04078346587670347 0.027268613154818926 28.89517759450491 0.003337339722234698 0.02656169339199343 28.83382373355622 -0.04848756711000623 -0.006145130443580344 9.087592329934608 2.2971899365185524 14.517897003698861 -77.54230169787809 18.430617613637185 -9.582406538895933 -4.9465426276841225 11.36602927344771 -49.88022946745219 -19.687587072520216 -1.5836537991220878 2.8060291143331684 -0.4956130421397246 0.08050924862222145 -8.083755456625061 0.017112543262815562 -0.029032967386202025 44.5408683231563 -0.041202257096218366 -0.002190796321435961 44.5264529739572 12.473411042421482 -0.04243033675654772 0.02268975701574177 0.04936543205616192 0.0386734920230944 0.004664965877523231 -0.0221081521707494 -0.04496500684911643 0.03483650086757703 11.136879820440946 -0.03841744239959603 0.02074932034201429 -0.038742829375476386 0.02608190524208741 0.03398545617162566 0.03757098607588818 0.03554327455541799 -0.013369698901215874 4.789133211612381 -0.036407772215149674 0.003769011116095304 0.019593355060559706 -0.025363029538286785 0.027535017111817627 -0.0029894304528689524 0.040202058763042836 0.012750834658686587 -5.648948742192092 0.011277545669729902 0.030787402689903116 -6.7360653046004675 -0.020312410386455492 -0.01007597476926779 -6.721851919203907 -0.011667594265125933 0.005869040964308052 0.04278425160627287 -0.01964545696298635 -0.019117782980387955 8.032962944545439 3.4988866930558427 -19.267324636298742 0.03557963444557447 10.36450801201388 0.0488224196967811 -5.605995437762269 -15.628862178676323 3.190514260293226 -0.02267016082680702 -0.0023195338320343784 -0.030292865742071032 0.022730331168555183 4.688551034826254 -0.030873679202175926 12.48497039223564 -8.27688797682667 6.8971760080027975 -0.014932118517162495 46.402631690268656 0.050003260356518635 -4.287112771546245 -14.769575666924863 -3.805980865853532 -0.02474917709866999 -0.011695134456150792 0.005725321448501376 0.007329627450018559 -10.705243085599149 -0.013363876591259934 
